<svg width="77" height="125" viewBox="0 0 77 125" fill="none" xmlns="http://www.w3.org/2000/svg">
<path d="M76 117.5L61 113L50.5 116.5L72 124C75.0378 122.504 75.6944 120.927 76 117.5Z" fill="#B19F7B"/>
<path d="M77 103L3 124.5C0.765725 122.046 0.0727184 120.419 0 117L74 95.4998C75.9494 98.0842 76.6306 99.7162 77 103Z" fill="#B19F7B"/>
<path d="M74 67.5C74.2914 70.2181 74.5 68.9999 74 74.5C73.5 80 59.5 95.4998 48 97.9998L53 88C53.838 82.9735 53.6437 80.2952 51 76C48.0615 72.7815 46.0538 70.7041 40.5 65.5C37.1694 61.3016 35.804 58.2674 34 52C33.5446 50.9286 33.2253 50.8478 32.5 52C29.4475 57.4642 27.8857 60.5929 27 67C26.7926 73.0299 27.1976 76.3219 29 82L23 76C21.043 72.7214 20.2625 72.2072 20 76V87C21.5252 91.5777 22.9411 93.8653 25.4256 97.8798L25.5 98C19.8508 96.6119 16.833 95.454 12 92C4.64802 85.2087 2.82358 85.2807 1.5 78C1.40023 67.9335 1.8867 62.236 3.5 52L10 61C11.4207 63.4175 12.08 64.3767 11.5 61C11.3276 55.7769 10.934 52.8745 12.5 47.5C14.7404 42.5324 16.6794 39.9262 21 35.5C28.8125 29.5619 32.4413 25.9682 34.5 18C35.4955 10.983 34.9616 7.04068 33 0C39.0002 3.82166 42.1144 6.3707 47 12C45.8305 11.5082 53.4467 18.7751 52.5 33C50.6349 39.9441 50.2538 43.8843 51 51C52.0865 56.169 52.7255 57.2406 54 51C57.8315 43.0895 61.1881 39.8787 68.5 35.5C66.5799 40.8404 66.0769 44.0563 67 50.5C68.6789 56.5708 73.2346 60.3612 74 67.5Z" fill="#B19F7B"/>
<path d="M15.5 107.5L27.5 104L2.49997 97C0.775952 99.0022 0.321182 100.308 0.499972 103L15.5 107.5Z" fill="#B19F7B"/>
</svg>
