<svg width="31" height="41" viewBox="0 0 31 41" fill="none" xmlns="http://www.w3.org/2000/svg">
<path d="M27.5 17.5C30.5 20 29.5 27 29 30C28 33 24.6667 33.8333 23.5 34V40.5C23.5 40.6667 22.9 41 20.5 41V39C20.5 38 19 38 19 39V41H16.5V39C16.5 38 15 38 15 39V41H12.5V39C12.5 38 11 38 11 39V41C8.71611 40.9406 8.20513 40.8671 8 40.5V34.5C7.85533 33.9281 3.62251 32.7887 2.5 30C2.20065 22.2858 1.2662 21.2193 4 17.5H27.5ZM17.5 32C17.0002 31.5001 15.9998 28.9999 15.5 29.5C15.0002 30.0001 14.0003 31.5 13.5 32C12.9997 32.5 12.9998 33.5 13.5 34C14.0002 34.4996 15.1957 34.0002 15.5 34C15.804 34 17.0003 34.5 17.5 34C17.9996 33.5 17.9997 32.4999 17.5 32ZM6.5 23.5C5.00525 23.5002 5.49658 26.976 5.5 27C5.677 27.9755 6.0001 28.5001 7 29C8.16552 29.7088 10.7888 29.8907 11.5 29.5C12.2112 29.1093 12.5 28.9999 13 28C13.5 27.0001 13.7649 25.5756 13 25.5C10.4883 24.3895 7.99997 23.4999 6.5 23.5ZM24.9795 23.5C23.4795 23.4999 20.9912 24.3895 18.4795 25.5C17.7146 25.5756 17.9795 27.0001 18.4795 28C18.9795 28.9999 19.2683 29.1093 19.9795 29.5C20.6907 29.8907 23.314 29.7088 24.4795 29C25.4794 28.5001 25.8025 27.9755 25.9795 27C25.9829 26.976 26.4742 23.5002 24.9795 23.5ZM18.5 4C17.5 5.5 17.5 8.5 20 10.5C25 13 27 8.5 26.5 6.5L31 3.5L28 16H4L0.5 3.5L5 6.5C5 14.0977 16.4394 11.7387 13 4L16 0.5L18.5 4Z" fill="var(--svg-fill-color)"/>
</svg>
