<svg width="35" height="41" viewBox="0 0 35 41" fill="none" xmlns="http://www.w3.org/2000/svg">
<path d="M3.22631 35.4105L3.22502 23.1817C3.21392 21.5317 3.22118 19.8816 3.2468 18.2318C3.26654 16.7487 3.30356 15.4574 3.49219 13.9818C3.59363 13.1882 3.63383 12.4611 3.86621 11.6619C4.4717 9.57949 5.52022 7.53053 6.87404 5.84297C8.73796 3.68304 11.6008 1.72996 14.4461 1.2982C14.8879 1.22638 15.3316 1.10385 15.7796 1.08281C17.4445 1.00463 18.9076 0.978672 20.5492 1.28771C23.8148 1.90249 26.581 3.63562 28.6943 6.21209C30.1836 8.02784 31.2352 10.0561 31.6662 12.3904C31.7834 13.0396 31.7867 13.825 31.8184 14.49C31.9024 15.1423 31.8901 16.0146 31.8938 16.6874C31.8977 17.3779 31.9216 18.1651 31.8964 18.8468C31.9796 20.9408 31.8904 23.0555 31.9481 25.1514C31.9541 25.3728 31.9538 25.5963 31.9496 25.8177C31.9776 26.5202 31.9505 27.4025 31.9667 28.1375C32.0234 30.4793 31.9855 32.8339 32.1616 35.1694C32.1694 35.2733 32.2492 35.5932 32.3214 35.6075C32.7174 35.6861 33.611 35.6536 33.9796 35.6377C33.9821 36.1846 34.0014 36.9628 33.9411 37.503C33.8668 38.1674 33.6603 38.6366 33.6947 39.353C33.3843 39.3699 32.8876 39.3461 32.5573 39.3453L30.1249 39.3471C27.6922 39.3594 25.2596 39.3428 22.8273 39.2972C20.923 39.2543 18.9127 39.1549 17.0202 39.1504C13.9183 39.1395 10.8163 39.1606 7.7148 39.2138C7.16306 39.2268 6.63894 39.283 6.09618 39.3036C4.59291 39.3609 3.03608 39.4151 1.53328 39.3384C1.26273 38.541 1.25953 36.3457 1.30427 35.4389C1.92996 35.4259 2.60994 35.4499 3.22631 35.4105ZM6.93523 35.416C8.17168 35.5069 9.72263 35.4412 10.9801 35.444C13.73 35.4292 16.48 35.4678 19.2283 35.56L22.4047 35.5964C24.4878 35.6376 26.466 35.6946 28.5569 35.629C28.5418 33.8025 28.3411 32.1739 28.3332 30.3671C28.3418 26.6593 28.3233 22.9516 28.2778 19.2441C28.2449 17.187 28.3153 14.7667 27.8622 12.755C27.4586 10.9625 26.204 9.16221 24.9937 7.84962C24.5141 7.33651 23.8571 6.91542 23.293 6.50424C21.2367 4.96902 19.292 4.66066 16.8034 4.70222C16.7411 4.70326 16.5111 4.70496 16.4595 4.71822C14.1617 4.8585 11.3985 6.39052 9.93361 8.15401C9.04332 9.22578 7.84915 11.0441 7.51897 12.3875C7.08581 14.1499 6.99303 16.4286 6.96122 18.2306C6.93487 19.6981 6.92007 21.1658 6.9168 22.6335C6.88311 25.3565 6.88175 28.0798 6.91273 30.803C6.91863 32.3527 6.89837 33.8577 6.93523 35.416Z" fill="#B19F7B"/>
<path d="M31.7443 18.6097L31.7926 18.8384L31.8408 18.8671L31.8964 18.8468C31.9796 20.9408 31.8904 23.0554 31.9481 25.1513C31.9541 25.3728 31.9538 25.5963 31.9496 25.8177C31.8446 25.675 31.688 19.2638 31.7443 18.6097Z" fill="#B19F7B"/>
<path d="M31.8184 14.4901C31.9024 15.1423 31.8901 16.0146 31.8938 16.6875C31.8978 17.3779 31.9216 18.1651 31.8964 18.8468L31.8408 18.8671L31.7926 18.8384L31.7443 18.6097C31.7542 18.5233 31.7493 18.3751 31.7463 18.2825C31.705 17.0042 31.7459 15.7644 31.8184 14.4901Z" fill="#B19F7B"/>
<path d="M10.2379 15.2649C10.2504 15.2652 10.2628 15.2655 10.2753 15.2664C10.415 15.2772 10.49 15.3377 10.5795 15.4412C10.776 15.6685 10.8672 15.9543 10.9483 16.2393C11.3392 17.6124 11.0416 18.9183 10.8736 20.2891C10.8074 20.8293 10.7724 21.3763 10.742 21.9198C10.7209 22.2948 10.7018 22.755 10.8642 23.1026C11.512 24.488 14.7627 24.904 16.0917 26.417C16.5525 26.9416 16.817 27.584 16.772 28.2918C16.7225 29.0705 16.3848 30.0783 15.7862 30.6042C15.1374 31.1741 14.4507 31.2342 13.6279 31.1764C13.514 31.1556 13.4519 31.115 13.4157 31.0099C13.5123 30.6652 14.6034 30.3329 14.9324 30.0569C16.5475 28.7013 15.0666 27.1364 13.6561 26.5326C13.086 26.3142 12.4665 26.2162 11.9095 25.9604C11.2494 25.6571 10.5076 25.2667 9.97062 24.7744C9.24535 24.1096 8.80751 23.0999 8.89801 22.1069C9.07764 20.136 10.0814 18.3355 10.182 16.3614C10.2004 15.9989 10.1894 15.6238 10.2379 15.2649Z" fill="#B19F7B"/>
<path d="M13.8225 8.18018L13.9291 8.19208L13.9754 8.25404C14.0182 8.66119 13.6123 9.2038 13.4817 9.59647C13.3359 10.0347 13.2411 10.6983 13.4002 11.1395C13.7847 12.2063 15.9869 13.414 16.7156 14.9712C17.1361 15.8697 16.9639 17.2302 16.6401 18.1362C16.1088 19.6227 15.3041 20.3673 13.9303 21.015C13.7299 21.1306 13.4901 21.3165 13.2662 21.2176L13.2405 21.1236C13.2608 21.0173 13.3105 20.8707 13.3756 20.7852C14.6389 19.1254 15.9893 16.9347 14.6228 14.9141C13.934 13.8924 12.6955 13.0886 12.3542 11.8558C12.1988 11.2947 12.2772 10.435 12.3682 9.85779C12.4059 9.61842 12.6175 9.22529 12.7447 9.0092C13.0128 8.55381 13.3025 8.31302 13.8225 8.18018Z" fill="#B19F7B"/>
<path d="M21.9043 24.4641C22.1027 24.4416 22.3132 24.3744 22.4039 24.5819C22.3837 24.8609 21.6717 25.5513 21.4727 25.9489C20.728 27.3827 22.2944 28.4552 22.6217 29.778C23.2136 32.1714 22.0558 33.0278 19.9687 33.682C19.3059 33.8898 18.601 34.1194 17.9365 34.3133C17.7071 34.3578 17.0624 34.4934 16.9412 34.259C17.0138 33.9752 17.7402 33.6147 17.9699 33.482C19.4839 32.6088 21.1548 31.6473 20.7484 29.5928C20.6737 28.9054 20.3426 28.3232 20.0912 27.6883C19.4016 25.9472 20.4018 25.0045 21.9043 24.4641Z" fill="#B19F7B"/>
<path d="M25.078 18.254C25.7467 18.6147 25.5248 20.3215 25.0225 20.86C24.1165 21.8315 23.1892 21.7663 21.9658 21.6302C21.4392 21.5716 20.8044 21.6143 20.2715 21.6242C19.2204 21.6831 18.3689 22.4914 18.1539 23.5155C18.0982 23.7804 17.9562 24.5501 17.7993 24.7445C17.693 24.7902 17.7412 24.7853 17.6062 24.7397C17.021 24.0636 17.0914 23.0145 17.4097 22.2224C17.7154 21.4609 18.8098 20.6311 19.5174 20.32C20.3073 19.9726 21.8069 20.1424 22.6824 20.2342C23.8038 20.3518 24.6334 20.1862 24.9131 18.8935C24.9572 18.6883 24.9856 18.4469 25.078 18.254Z" fill="#B19F7B"/>
<path d="M19.1721 7.89978C19.4937 8.10368 19.1747 9.3837 19.5197 9.96035C20.5353 11.658 22.918 11.6524 23.9073 13.453C23.9419 13.5158 23.9734 13.5801 24.0018 13.6459C24.2458 14.2104 24.2434 15.0159 24.0135 15.5814C23.6207 16.5467 22.769 17.1055 21.8608 17.4968C21.6448 17.5754 21.4361 17.5796 21.2072 17.5978C22.0942 16.6798 23.017 16.1414 23.0029 14.7119C22.989 13.2887 21.6925 13.0948 20.7179 12.534C19.6842 11.9392 18.5585 10.9211 18.6049 9.61146C18.6282 9.02855 18.7459 8.32127 19.1721 7.89978Z" fill="#B19F7B"/>
<path d="M25.7524 24.4465C26.1769 24.4289 25.7601 25.7832 25.8434 26.2347C26.1043 27.6456 27.347 28.6855 26.941 30.1929C26.787 30.7654 26.1412 31.4963 25.6252 31.7871C25.4644 31.7907 25.4775 31.8154 25.36 31.743C25.3202 31.5996 25.3543 31.4793 25.4344 31.3663C26.7322 29.5347 24.478 28.1987 24.7896 26.342C24.8986 25.6928 25.1711 24.8932 25.7524 24.4465Z" fill="#B19F7B"/>
<path d="M11.2157 29.5002C11.2602 29.4959 11.305 29.4947 11.3496 29.4968C11.5417 29.5061 11.6986 29.511 11.8254 29.65C11.7995 30 11.208 30.196 10.9645 30.4001C10.607 30.7 10.2935 31.0509 9.97439 31.3911C9.90823 31.4883 9.83398 31.5499 9.72547 31.5745C9.50375 31.4026 9.71896 30.8603 9.83766 30.6495C10.1431 30.1072 10.6185 29.6796 11.2157 29.5002Z" fill="#B19F7B"/>
<path d="M18.8694 15.4364C19.1828 15.4225 20.1172 15.5297 20.2285 15.8689C20.0907 15.9943 19.7741 15.9392 19.5957 15.9241C19.1155 15.8842 18.8878 16.0489 18.4416 16.0384C18.393 16.0372 18.3773 15.9856 18.3542 15.9429C18.3841 15.626 18.6131 15.5448 18.8694 15.4364Z" fill="#B19F7B"/>
<path d="M20.655 8.4749C20.9851 8.45603 22.067 8.88597 22.1683 9.29425C21.6845 9.21675 20.9928 8.84405 20.655 8.4749Z" fill="#B19F7B"/>
</svg>
